<svg xmlns="http://www.w3.org/2000/svg" fill="none" viewBox="0 0 132 36"><g clip-path="url(#a)"><path fill="url(#b)" d="M23.472 1.074a17.283 17.283 0 0 0-12.968.393 17.599 17.599 0 0 0-9.13 9.334 17.696 17.696 0 0 0-1.16 4.113C7.541 1.068 21.295 7.091 21.295 7.091a11.052 11.052 0 0 1 3.254 1.891l4.028-4.942a17.353 17.353 0 0 0-5.106-2.966z"/><path fill="url(#c)" d="M.213 14.914a17.89 17.89 0 0 0 1.93 11.256 17.629 17.629 0 0 0 5.897 6.41c-4.97-8.271-1.712-15.32-1.702-15.345a11.394 11.394 0 0 1 1.414-5.057 11.234 11.234 0 0 1 3.521-3.86 11.018 11.018 0 0 1 10.022-1.225S7.543 1.068.214 14.914z"/><path fill="url(#d)" d="M32.157 13.927H21.812v6.408h4.016v4.8s4.723-2.024 6.329-11.208z"/><path fill="url(#e)" d="M25.828 25.136a11.26 11.26 0 0 1-3.257 2.576 11.025 11.025 0 0 1-10.9-.395 11.218 11.218 0 0 1-3.915-4.108 11.39 11.39 0 0 1-1.418-5.975c-.01.025-3.268 7.074 1.702 15.345a17.338 17.338 0 0 0 8.61 2.774 17.303 17.303 0 0 0 8.83-1.949 17.67 17.67 0 0 0 6.06-5.243l.617-.847V13.927c-2.886 8.493-6.329 11.209-6.329 11.209z"/></g><path fill="#868686" d="M51.642 16.977v2.329h3.322c-.42 1.031-1.622 1.718-3.035 1.718-2.024 0-3.342-1.45-3.342-3.57 0-2.139 1.337-3.59 3.342-3.59 1.355 0 2.558.726 3.035 1.852h3.876c-.573-3.093-3.436-5.288-6.95-5.288-4.105 0-7.083 2.96-7.083 7.026 0 4.067 3.036 7.007 7.122 7.007 4.181 0 7.045-3.112 7.045-7.484h-7.332zm14.717-3.208c-1.222 0-2.1.344-2.826 1.184l-.553-1.146h-2.387v10.31h3.551v-5.231c0-1.317.535-1.871 1.776-1.871h1.394v-3.246h-.955zm10.446.038l-.363.802c-.84-.706-1.928-1.107-3.15-1.107-3.15 0-5.404 2.272-5.404 5.46 0 3.208 2.253 5.499 5.403 5.499 1.203 0 2.273-.382 3.113-1.07l.305.726h2.75v-10.31h-2.654zm-3.036 7.523c-1.337 0-2.31-1.012-2.31-2.368 0-1.336.973-2.33 2.31-2.33 1.336 0 2.31.994 2.31 2.33 0 1.356-.974 2.368-2.31 2.368zm15.3-11.246v4.105c-.725-.458-1.603-.706-2.558-.706-3.15 0-5.403 2.29-5.403 5.48 0 3.207 2.253 5.517 5.403 5.517a4.78 4.78 0 0 0 3.112-1.126l.344.763h2.616V10.084H89.07zM86.99 21.33c-1.318 0-2.31-1.012-2.31-2.349 0-1.355.992-2.367 2.31-2.367 1.336 0 2.31 1.012 2.31 2.367 0 1.337-.974 2.349-2.31 2.349zm7.837-8.802h3.514V9.511h-3.514v3.017zm-.018 11.59h3.55v-10.31h-3.55v10.31zm16.395-5.251c0-3.017-2.291-5.384-5.613-5.384-3.246 0-5.594 2.329-5.594 5.48 0 3.15 2.367 5.498 5.594 5.498 2.577 0 4.678-1.47 5.403-3.819h-3.551c-.325.611-1.031.974-1.852.974-1.127 0-1.871-.61-2.1-1.795h7.656c.038-.324.057-.63.057-.954zm-5.613-2.597c1.069 0 1.814.554 2.119 1.585h-4.162c.286-1.031 1.012-1.585 2.043-1.585zm13.453-2.75c-1.336 0-2.482.497-3.246 1.356l-.477-1.069h-2.501v10.31h3.551V18.62c0-1.318.63-2.081 1.738-2.081.897 0 1.355.591 1.355 1.794v5.785h3.552v-6.281c0-2.616-1.585-4.315-3.972-4.315zm11.602 7.504c-.745 0-1.203-.458-1.203-1.184v-3.283h2.501v-2.75h-2.578V10.81h-.744L124 15.716v.84h1.89v3.876c0 2.292 1.394 3.685 3.666 3.685H132v-3.093h-1.355z"/><defs><linearGradient id="b" x1="-.249" x2="28.742" y1="13.896" y2="4.526" gradientUnits="userSpaceOnUse"><stop stop-color="#48176D"/><stop offset="1" stop-color="#47FFC8"/></linearGradient><linearGradient id="c" x1="3.739" x2="21.972" y1="29.94" y2="8.453" gradientUnits="userSpaceOnUse"><stop stop-color="#531D99"/><stop offset="1" stop-color="#4C98F1"/></linearGradient><linearGradient id="d" x1="20.441" x2="32.157" y1="19.455" y2="19.529" gradientUnits="userSpaceOnUse"><stop offset=".025" stop-color="#F0B358"/><stop offset="1" stop-color="#EC2C66"/></linearGradient><linearGradient id="e" x1="5.28" x2="32.157" y1="24.649" y2="24.649" gradientUnits="userSpaceOnUse"><stop stop-color="#521383"/><stop offset="1" stop-color="#C71E79"/></linearGradient><clipPath id="a"><path fill="#fff" d="M0 0h32v35.2H0z" transform="scale(1.00489)"/></clipPath></defs></svg>